<?xml version="1.0" encoding="utf-8"?>
<!-- Generator: Adobe Illustrator 23.0.0, SVG Export Plug-In . SVG Version: 6.00 Build 0)  -->
<svg version="1.1" id="eGriOWkwA2R1" text-rendering="geometricPrecision" shape-rendering="geometricPrecision"
	 xmlns="http://www.w3.org/2000/svg" xmlns:xlink="http://www.w3.org/1999/xlink" x="0px" y="0px" viewBox="0 0 700 600"
	 style="enable-background:new 0 0 700 600;" xml:space="preserve">
<style type="text/css">
	.st0{filter:url(#eGriOWkwA2R4-filter);}
	
		.st1{fill:none;stroke:#E83F30;stroke-width:10;stroke-linecap:round;stroke-linejoin:round;stroke-miterlimit:10;stroke-dasharray:1079.54;stroke-dashoffset:1079;}
	.st2{filter:url(#eGriOWkwA2R6-filter);}
	
		.st3{fill:none;stroke:#F2C443;stroke-width:15;stroke-linejoin:round;stroke-miterlimit:10;stroke-dasharray:1938.05;stroke-dashoffset:1938;}
	
		.st4{fill:none;stroke:#F2C443;stroke-width:15;stroke-linecap:round;stroke-linejoin:round;stroke-miterlimit:10;stroke-dasharray:1938.05;stroke-dashoffset:1938;}
	.st5{filter:url(#eGriOWkwA2R8-filter);}
	
		.st6{fill:none;stroke:#E83F30;stroke-width:15;stroke-linecap:round;stroke-linejoin:round;stroke-miterlimit:10;stroke-dasharray:290.85;stroke-dashoffset:290;}
	.st7{filter:url(#eGriOWkwA2R10-filter);}
	.st8{filter:url(#eGriOWkwA2R12-filter);}
</style>
<filter  height="600%" id="eGriOWkwA2R8-filter" width="600%" x="-400%" y="-400%">
	<feGaussianBlur  id="eGriOWkwA2R8-filter-blur-0" result="result" stdDeviation="10,10"></feGaussianBlur>
</filter>
<filter  height="600%" id="eGriOWkwA2R6-filter" width="600%" x="-400%" y="-400%">
	<feGaussianBlur  id="eGriOWkwA2R6-filter-blur-0" result="result" stdDeviation="10,10"></feGaussianBlur>
</filter>
<filter  height="600%" id="eGriOWkwA2R4-filter" width="600%" x="-400%" y="-400%">
	<feGaussianBlur  id="eGriOWkwA2R4-filter-blur-0" result="result" stdDeviation="10,10"></feGaussianBlur>
</filter>
<filter  height="600%" id="eGriOWkwA2R12-filter" width="600%" x="-400%" y="-400%">
	<feGaussianBlur  id="eGriOWkwA2R12-filter-blur-0" result="result" stdDeviation="10,10"></feGaussianBlur>
</filter>
<filter  height="600%" id="eGriOWkwA2R10-filter" width="600%" x="-400%" y="-400%">
	<feGaussianBlur  id="eGriOWkwA2R10-filter-blur-0" result="result" stdDeviation="10,10"></feGaussianBlur>
</filter>
<g id="eGriOWkwA2R2">
	<g id="eGriOWkwA2R3">
		<g id="eGriOWkwA2R4" class="st0">
			<path class="st1" d="M676.6,412.8c0,60-32.6,90-97.7,90h-71.5c-3.2,0-5.8,2.6-5.8,5.8v30.5c0,8.4-6.8,15.2-15.2,15.2h-29.9
				c-4.3,0-8.4-1.6-11.5-4.7c-2.8-2.8-4.3-6.6-4.3-10.5v-122c0-1.1,0.9-2,1.9-2c20-1.1,39.3-7.7,55.7-19.2c0.6-0.5,1.4-0.5,2.1-0.2
				s1.1,1.1,1.1,1.8v53.7c0,3.2,2.6,5.8,5.8,5.8h53c18.1,0,31.8-3,41.2-9.1c9.4-6.1,14-17.8,14-35.2c0-17.4-4.7-29.1-14-35.2
				c-9.3-6.1-23.1-9.1-41.2-9.1h-31c-0.8,0-1.5-0.4-1.8-1s-0.3-1.5,0.1-2.1c8-12.4,13.3-26.3,15.7-40.9c0.1-1,1-1.7,2-1.7h33.4
				C644,322.8,676.6,352.8,676.6,412.8z"/>
		</g>
		<path id="eGriOWkwA2R5" class="st1" d="M676.6,412.8c0,60-32.6,90-97.7,90h-71.5c-3.2,0-5.8,2.6-5.8,5.8v30.5
			c0,8.4-6.8,15.2-15.2,15.2h-29.9c-4.3,0-8.4-1.6-11.5-4.7c-2.8-2.8-4.3-6.6-4.3-10.5v-122c0-1.1,0.9-2,1.9-2
			c20-1.1,39.3-7.7,55.7-19.2c0.6-0.5,1.4-0.5,2.1-0.2s1.1,1.1,1.1,1.8v53.7c0,3.2,2.6,5.8,5.8,5.8h53c18.1,0,31.8-3,41.2-9.1
			c9.4-6.1,14-17.8,14-35.2c0-17.4-4.7-29.1-14-35.2c-9.3-6.1-23.1-9.1-41.2-9.1h-31c-0.8,0-1.5-0.4-1.8-1s-0.3-1.5,0.1-2.1
			c8-12.4,13.3-26.3,15.7-40.9c0.1-1,1-1.7,2-1.7h33.4C644,322.8,676.6,352.8,676.6,412.8z"/>
		<g id="eGriOWkwA2R6" class="st2">
			<path class="st3" d="M455.2,195.8c-0.7,1.7-0.8,3.6-0.1,5.3c0.7,1.7,2,3.1,3.7,3.8c41.9,18,65.7,62.6,57.4,107.4
				c-8.3,44.8-46.6,77.9-92.1,79.6l-1.5,0c-14.4,0.3-28.6-2.6-41.7-8.4c-1.7-0.7-3.6-0.8-5.3-0.1c-1.7,0.7-3.1,2-3.8,3.7
				l-79.9,183.3c-8.6,19.7-36.6,19.5-44.9-0.3l-78.2-186c-1.3-3-0.2-6.6,2.5-8.4c38.9-25.9,54-75.8,35.8-118.9s-64.3-67.3-110-57.6
				c-3.2,0.7-6.5-1-7.8-4.1L27.9,48.8c-3.2-7.6-2.3-16.2,2.2-23s12.2-10.9,20.4-10.9h446.3c8.2,0,15.9,4.2,20.4,11.1
				c4.5,6.9,5.3,15.6,2,23.2L455.2,195.8z"/>
		</g>
		<path id="eGriOWkwA2R7" class="st4" d="M455.2,195.8c-0.7,1.7-0.8,3.6-0.1,5.3c0.7,1.7,2,3.1,3.7,3.8
			c41.9,18,65.7,62.6,57.4,107.4c-8.3,44.8-46.6,77.9-92.1,79.6l-1.5,0c-14.4,0.3-28.6-2.6-41.7-8.4c-1.7-0.7-3.6-0.8-5.3-0.1
			c-1.7,0.7-3.1,2-3.8,3.7l-79.9,183.3c-8.6,19.7-36.6,19.5-44.9-0.3l-78.2-186c-1.3-3-0.2-6.6,2.5-8.4
			c38.9-25.9,54-75.8,35.8-118.9s-64.3-67.3-110-57.6c-3.2,0.7-6.5-1-7.8-4.1L27.9,48.8c-3.2-7.6-2.3-16.2,2.2-23
			s12.2-10.9,20.4-10.9h446.3c8.2,0,15.9,4.2,20.4,11.1c4.5,6.9,5.3,15.6,2,23.2L455.2,195.8z"/>
		<g id="eGriOWkwA2R8" class="st5">
			<circle class="st6" cx="179.7" cy="103.5" r="46.3"/>
		</g>
		<circle id="eGriOWkwA2R9" class="st6" cx="179.7" cy="103.5" r="46.3"/>
		<g id="eGriOWkwA2R10" class="st7">
			<circle class="st6" cx="346.1" cy="216.5" r="46.3"/>
		</g>
		<circle id="eGriOWkwA2R11" class="st6" cx="346.1" cy="216.5" r="46.3"/>
		<g id="eGriOWkwA2R12" class="st8">
			<circle class="st6" cx="273.6" cy="408.3" r="46.3"/>
		</g>
		<circle id="eGriOWkwA2R13" class="st6" cx="273.6" cy="408.3" r="46.3"/>
	</g>
</g>
</svg>
