<svg xmlns="http://www.w3.org/2000/svg" viewBox="0 0 349.43 437.79"><defs><style>.cls-1{fill:#f2c443;}.cls-2{fill:#222323;}</style></defs><title>Fichier 8</title><g id="Calque_2" data-name="Calque 2"><g id="PUZZLE_PIECE_3"><path class="cls-1" d="M349.43,335.5V14A14,14,0,0,0,335.49,0h-101a2.88,2.88,0,0,0-2.73,3.84,60.77,60.77,0,1,1-114.18,0A2.86,2.86,0,0,0,114.92,0h-101A14,14,0,0,0,0,14V125.14a2.87,2.87,0,0,0,4.57,2.31,60.75,60.75,0,1,1,0,97.4A2.87,2.87,0,0,0,0,227.12V335.5a13.87,13.87,0,0,0,1.37,6c.08.17.17.33.25.49a14,14,0,0,0,12.24,7.26H116.07a2.83,2.83,0,0,1,.93.15,2.87,2.87,0,0,1,1.71,3.83,61.68,61.68,0,0,0-2.83,39.6,59.17,59.17,0,0,0,42.46,42.8C198.91,446.23,235.4,415.9,235.4,377a60.57,60.57,0,0,0-4.83-23.78,2.86,2.86,0,0,1,2.65-4h102.2A13.9,13.9,0,0,0,347.09,343c.09-.13.17-.26.25-.39a13.9,13.9,0,0,0,1.81-4.26c0-.07,0-.15,0-.22A13.79,13.79,0,0,0,349.43,335.5Z"/><path class="cls-1" d="M13.94,349.44H117a2.83,2.83,0,0,0-.93-.15H13.86A14,14,0,0,1,1.62,342,14,14,0,0,0,13.94,349.44Z"/><path class="cls-1" d="M349.15,338.31a13.9,13.9,0,0,1-1.81,4.26c-.08.13-.16.26-.25.39a13.9,13.9,0,0,1-11.67,6.33H233.22a2.83,2.83,0,0,0-.93.15h103.2A14,14,0,0,0,349.15,338.31Z"/><path class="cls-2" d="M230.06,206.48a23.24,23.24,0,1,0-23.24,23.23A23.24,23.24,0,0,0,230.06,206.48Zm-8.53,0a14.71,14.71,0,1,1-14.71-14.71A14.7,14.7,0,0,1,221.53,206.48Z"/><path class="cls-2" d="M79.43,306.43a23.24,23.24,0,1,0-23.24,23.24A23.24,23.24,0,0,0,79.43,306.43Zm-8.53,0a14.71,14.71,0,1,1-14.71-14.7A14.71,14.71,0,0,1,70.9,306.43Z"/><path class="cls-2" d="M157.51,267.65a23.24,23.24,0,1,0-23.24,23.24A23.23,23.23,0,0,0,157.51,267.65Zm-8.53,0A14.71,14.71,0,1,1,134.27,253,14.7,14.7,0,0,1,149,267.65Z"/><path class="cls-2" d="M226.84,307.94a23.24,23.24,0,1,0-23.24,23.24A23.23,23.23,0,0,0,226.84,307.94Zm-8.53,0a14.71,14.71,0,1,1-14.71-14.7A14.7,14.7,0,0,1,218.31,307.94Z"/><path class="cls-2" d="M322.48,179.53a23.24,23.24,0,1,0-23.24,23.24A23.23,23.23,0,0,0,322.48,179.53Zm-8.53,0a14.71,14.71,0,1,1-14.71-14.7A14.71,14.71,0,0,1,314,179.53Z"/><path class="cls-2" d="M320.62,290.89a23.24,23.24,0,1,0-23.24,23.23A23.24,23.24,0,0,0,320.62,290.89Zm-8.53,0a14.71,14.71,0,1,1-14.71-14.71A14.7,14.7,0,0,1,312.09,290.89Z"/><path class="cls-2" d="M73.61,67.37A23.24,23.24,0,1,0,50.37,90.61,23.24,23.24,0,0,0,73.61,67.37Zm-8.53,0a14.71,14.71,0,1,1-14.71-14.7A14.72,14.72,0,0,1,65.08,67.37Z"/><path class="cls-2" d="M157.51,153a23.24,23.24,0,1,0-23.24,23.23A23.24,23.24,0,0,0,157.51,153ZM149,153a14.71,14.71,0,1,1-14.71-14.71A14.7,14.7,0,0,1,149,153Z"/><path class="cls-2" d="M322.48,48.47a23.24,23.24,0,1,0-23.24,23.24A23.23,23.23,0,0,0,322.48,48.47Zm-8.53,0a14.71,14.71,0,1,1-14.71-14.7A14.71,14.71,0,0,1,314,48.47Z"/><path class="cls-2" d="M253.3,116.27a23.24,23.24,0,1,0-23.24,23.24A23.23,23.23,0,0,0,253.3,116.27Zm-8.53,0a14.71,14.71,0,1,1-14.71-14.7A14.71,14.71,0,0,1,244.77,116.27Z"/></g></g></svg>