<svg xmlns="http://www.w3.org/2000/svg" viewBox="0 0 552.96 437.85"><defs><style>.cls-1{fill:#f2c443;}.cls-2{fill:#e83f30;}.cls-3{fill:#f08ca7;}</style></defs><title>Fichier 6</title><g id="Calque_2" data-name="Calque 2"><g id="PUZZLE_PIECE_1"><path class="cls-1" d="M553,174.07c0,.71,0,1.41,0,2.11a60.77,60.77,0,0,1-97.1,47.13,2.87,2.87,0,0,0-4.57,2.31V335.4a14,14,0,0,1-13.95,14H335.13a2.86,2.86,0,0,0-2.86,3,2.75,2.75,0,0,0,.22,1.28,60.35,60.35,0,0,1,4.75,20.62c0,.44.05.89.05,1.33s0,1,0,1.53a64.26,64.26,0,0,1-2,15.8,59.15,59.15,0,0,1-42.45,42.8c-40,10.42-76.07-19-77-57.06,0-.52,0-1.05,0-1.57s0-.84,0-1.26a60.32,60.32,0,0,1,4.81-22.2,2.74,2.74,0,0,0,.22-1.27,2.87,2.87,0,0,0-2.87-2.7H115.78a13.92,13.92,0,0,1-11.67-6.32l0-.06a13.88,13.88,0,0,1-2.38-7.8V225.72a2.87,2.87,0,0,0-4.61-2.28,60.76,60.76,0,1,1,0-97.4,2.87,2.87,0,0,0,4.57-2.31V14a13.94,13.94,0,0,1,6.38-11.72l.92-.56A14,14,0,0,1,115.63,0h99a2.87,2.87,0,0,1,2.11,3.3A61.16,61.16,0,0,0,216,18.18,61,61,0,0,0,274.4,74.54a60.76,60.76,0,0,0,62-71.26A2.86,2.86,0,0,1,338.51,0h98.68a13.9,13.9,0,0,1,11.67,6.33c.09.13.17.26.25.39a13.7,13.7,0,0,1,2.16,7.16c0,.1,0,.2,0,.3V124a2.87,2.87,0,0,0,4.61,2.27A60.77,60.77,0,0,1,553,174.07Z"/><circle class="cls-2" cx="384.85" cy="285.14" r="30"/><circle class="cls-2" cx="281.95" cy="155.5" r="30"/><circle class="cls-2" cx="179.05" cy="291.95" r="30"/><circle class="cls-2" cx="406.11" cy="95.5" r="30"/><circle class="cls-2" cx="171.03" cy="58.09" r="30"/><rect class="cls-3" x="138.46" y="158.42" width="81.19" height="33.2" transform="translate(358.1 350.03) rotate(-180)"/><rect class="cls-3" x="344.25" y="170.75" width="81.19" height="33.2" transform="translate(769.7 374.69) rotate(-180)"/><rect class="cls-3" x="246.46" y="254.95" width="81.19" height="33.2" transform="translate(15.5 558.6) rotate(-90)"/></g></g></svg>