<?xml version="1.0" encoding="utf-8"?>
<!-- Generator: Adobe Illustrator 23.0.0, SVG Export Plug-In . SVG Version: 6.00 Build 0)  -->
<svg version="1.1" id="Calque_1" xmlns="http://www.w3.org/2000/svg" xmlns:xlink="http://www.w3.org/1999/xlink" x="0px" y="0px"
	 viewBox="0 0 1000 600" style="enable-background:new 0 0 1000 600;" xml:space="preserve">
<style type="text/css">
	.st0{fill:#848484;}
	.st1{fill:#B5B5B5;}
	.st2{fill:none;stroke:#848484;stroke-width:19.2583;stroke-linecap:round;stroke-linejoin:round;stroke-miterlimit:10;}
	.st3{fill:none;stroke:#848484;stroke-width:15;stroke-linecap:round;stroke-linejoin:round;stroke-miterlimit:10;}
</style>
<g>
	<path class="st0" d="M181.4,347.3c35.9-4.5,104-49.5,101.2-72c-1.2-9.2-14.2-13.2-29.3-15.4c-18.5-2.7-39.1-2.8-40.7-15.9
		c-3.1-25,42.4-51,64.1-54.5c13.5-2.1,23,0,24.3,11.5c1.9,17.7-21.6,40.2-37.3,42.2c-3,0.4-7.6-0.3-8-3.5c-0.8-6.1,4.2-13.2,7-15.4
		c-1.9,2.8-2.4,6-2.2,8.1c0.1,0.9,1,0.8,1.9,0.7c6.1-0.8,33-21.1,33.3-34.9c0.1-4.9-4-5.7-9.7-5c-1.6,0.2-3.6,0.6-5.5,1
		c-18.8,4.5-59.5,34.5-57.5,49.9c1.1,8.6,15.8,10.6,31.4,12.8c17.4,2.5,35.5,5.8,37.6,22.3c4.1,32.6-66,73.8-106.6,78.9
		c-9.8,1.2-24.5,0.2-25.9-11.6c-2.8-22,60-66,79.3-68c-38.1,15.7-71.8,53.3-70.4,64.3C168.9,348.7,176.7,347.9,181.4,347.3z"/>
	<path class="st0" d="M352.7,246.5c-26.9,3.4-51.7,57.4-43,60c8.8,2.4,27.1-24.1,35.1-40.5c-0.9-1.2-3-5.5-2.6-7.1
		c0.3-1.5,4.2-6.6,6.1-7c1.5-0.3,3.3,0.6,3.6,1.1c3.4,4.3,7.4,7.2,13.3,6c9.9-2.1,14.6-8.6,16.3-8.7c-0.5,2.2-5.8,7.8-12.8,11.1
		c-3.1,1.5-6.2,2.1-8.6,2.4c-2.2,0.3-3.8,0.2-4.5,0c-1.5,20.3-29.6,45.6-45.5,46.7c-6.9,0.4-12.1-4.7-12.8-10.3
		c-3-24.3,26.5-52.6,50-55.6c5.7-0.7,8.2,0.6,9.4,1.4c0.8,0.4,0.4,0.4-0.2,0.5C355,246.5,353.8,246.4,352.7,246.5z"/>
	<path class="st0" d="M381.9,241.4c0.8-0.7,1.4-0.9,2-1c3.6-0.4,10,4.6,10.4,8.4c0.1,0.6-0.5-0.1-1.7-0.1
		c-2.3,0.1-6.7,6.6-10.4,13.1c-3.3,5.9-7.7,13.5-10.1,19.4c6.6-11.3,19.9-25.6,31.5-36.5c5.3-4.9,9.4-8,12.5-8.7
		c1.6-0.4,8.5,5.3,7.6,6.6c-2.8,3.8-13.8,16.3-17.3,28.5c7.1-1.5,16.5-9.5,24.7-18.8c0.1-0.2,1-0.4,1.2-0.1
		c-2.2,3.9-18,22.8-28.3,24.1c-2.7,0.3-7.8-4.3-8-6.1c-0.5-4.2,3.2-13.4,6.5-18.3c-12.7,9.8-18.9,16.6-27.6,29
		c-6.6,9.1-13.8,23.4-10.4,24.4c-4.2,1.6-8.3-2.6-9.9-6.6c-0.5-1.3-0.1-4.2,1.3-7.9c2.7-8.9,8.1-20.1,12.9-29.3
		C373.1,253.2,378.5,244.8,381.9,241.4z"/>
	<path class="st0" d="M480.1,303.5c-13.1,1.6-27.8,4.1-45.1,8.1c-61.7,14.1-109.1,35-107.7,46c0.2,1.5,1.2,2.6,3,3.7
		c-6.5,0.4-13.8-3.9-14.5-8.5c-2.6-17.4,68.5-38.4,109-46.5c11.8-2.4,24.9-4.3,38.2-6c22.9-2.9,46.3-4.6,64-4.3
		c18.5,0.2,42.7,2.8,46.9,6.1c0.4,0.6-28.3-3.6-51.4-2.2C509.5,300.8,496,301.5,480.1,303.5z"/>
	<path class="st0" d="M442.5,233.7c0.8-0.7,1.4-0.9,2-1c3.6-0.4,10,4.6,10.4,8.4c0.1,0.6-0.5-0.1-1.7-0.1
		c-2.3,0.1-6.7,6.6-10.4,13.1c-3.3,5.9-7.7,13.5-10.1,19.4c6.6-11.3,19.9-25.6,31.5-36.5c5.3-4.9,9.4-8,12.5-8.7
		c1.6-0.4,8.5,5.3,7.6,6.6c-2.8,3.8-13.8,16.3-17.3,28.5c7.1-1.5,16.5-9.5,24.7-18.8c0.1-0.2,1-0.4,1.2-0.1
		c-2.2,3.9-18,22.8-28.3,24.1c-2.7,0.3-7.8-4.3-8-6.1c-0.5-4.2,3.2-13.4,6.5-18.3c-12.7,9.8-18.9,16.6-27.6,29
		c-6.6,9.1-13.8,23.4-10.4,24.4c-4.2,1.6-8.3-2.6-9.9-6.6c-0.5-1.3-0.1-4.2,1.3-7.9c2.7-9,8.1-20.1,12.9-29.3
		C433.7,245.6,439.1,237.2,442.5,233.7z"/>
	<path class="st0" d="M530.3,257.6c-9.8,15.9-28.1,61.3-34.8,78.9c9.7-17.7,28.8-40.2,33-42.1c0.7-0.1,0.9,0.8,0.9,0.8
		c-19.2,19.6-34.9,53.4-35.6,60.7c-0.3,0.3-0.8,0.6-1.6,0.7c-5.9,1.3-9.1-6.6-9-9.3c-0.1-4.5,2.2-11.5,4.1-18
		c5.6-17.9,20.9-59.9,38.8-86.7c-13.1,17.2-31.3,42.2-40,45.1c-0.4,0.1-0.9,0.1-1.2,0.1c-2.4,0.3-7.5-3.1-7.9-6.7
		c-0.8-6.4,5.5-22.5,12.5-35.3c4.1-7.9,9.4-15.4,12.8-18.8c0.7-0.8,1.5-1.1,2-1.2c3.6-0.4,10,4.6,10.4,8.5c0.1,0.6-0.5-0.1-1.7-0.1
		c-2.4,0-7.6,7.9-11.8,15.2c-6.4,10.8-12,24.8-11.5,29.1c6.8-3.9,20.3-19.2,26.4-26.9c6.9-8.6,16.9-22.8,24.3-30.4
		c0.8-0.9,1.4-1.1,2.1-1.2c3.4-0.4,10,4.8,10.4,8.5c0.1,0.6-0.6-0.1-1.7-0.1c-1.2,0-3,1.6-4.8,4.1
		C540.9,240,535.8,248.8,530.3,257.6z"/>
</g>
<g>
	<path class="st0" d="M611.1,296.7c-0.1-0.3-0.2-0.6-0.2-1s0.2-0.8,0.6-1.3c0.4-0.5,1.1-0.8,1.9-0.8h8c1,0,1.8,0.3,2.6,1
		s1.4,1.5,1.7,2.5l9.7,29l8.9-29c0.7-2.3,2.2-3.5,4.4-3.5h6.7c2.2,0,3.6,1.2,4.4,3.5l8.9,29l9.7-29c0.3-1,0.9-1.8,1.7-2.5
		s1.7-1,2.6-1h8c0.8,0,1.5,0.3,1.9,0.8c0.4,0.5,0.6,0.9,0.6,1.3s0,0.7-0.1,1l-16.3,45.7c-0.9,2.5-2.7,3.7-5.3,3.7h-5.3
		c-2.7,0-4.5-1.2-5.2-3.7l-8.9-28.2l-8.9,28.2c-0.8,2.5-2.6,3.7-5.2,3.7h-5.3c-2.6,0-4.3-1.2-5.2-3.7L611.1,296.7z"/>
	<path class="st0" d="M700.2,341.5c-3.8-3.6-5.6-8.7-5.6-15.4c0-6.7,1.9-11.9,5.7-15.5c3.8-3.6,9-5.4,15.7-5.4s12,1.8,15.7,5.3
		c3.8,3.5,5.6,8.5,5.6,15.1v2.1c0,0.7-0.2,1.2-0.6,1.6s-1,0.6-1.6,0.6h-27.6c0.2,3,1.1,5.2,2.6,6.6c1.5,1.4,3.8,2.1,7.1,2.1
		s5.5-0.7,6.7-2.2s2.7-2.2,4.4-2.2h5.5c0.7,0,1.2,0.2,1.6,0.6c0.4,0.4,0.6,1,0.6,1.6c0,7-6.7,10.5-20,10.5
		C709.2,346.9,704,345.1,700.2,341.5z M707.4,322.2h17c-0.2-5.8-3.1-8.6-8.5-8.6S707.7,316.5,707.4,322.2z"/>
	<path class="st0" d="M752,293.6c3.1,0,4.7,1.2,4.7,3.5c0,0.6-0.2,1.4-0.5,2.2l-4.4,11c-0.5,1.2-1.3,2.2-2.3,3s-2.2,1.2-3.5,1.2
		h-1.4c-1.5,0-2.5-0.3-2.9-1c-0.4-0.6-0.6-1.3-0.6-2c0-0.7,0-1.3,0.1-2l2.2-11.8c0.2-1.1,0.9-2.1,2-3c1.1-0.8,2.3-1.2,3.6-1.2H752z"
		/>
	<path class="st0" d="M792,315.3l-5.6-0.2c-3.3,0-6.4,1.8-9.4,5.4v23.4c0,0.7-0.2,1.2-0.6,1.6c-0.4,0.4-1,0.6-1.6,0.6h-8.2
		c-0.7,0-1.2-0.2-1.6-0.6c-0.4-0.4-0.6-1-0.6-1.6v-35.6c0-0.7,0.2-1.2,0.6-1.6c0.4-0.4,1-0.6,1.6-0.6h8.2c0.7,0,1.2,0.2,1.6,0.6
		c0.4,0.4,0.6,1,0.6,1.6v2.3c2.5-1.8,4.9-3.1,7.2-4c2.3-0.9,5.3-1.3,9.1-1.3c0.7,0,1.2,0.2,1.6,0.6c0.4,0.4,0.6,1,0.6,1.6v5.6
		c0,0.7-0.2,1.2-0.6,1.6c-0.4,0.4-1,0.6-1.6,0.6H792z"/>
	<path class="st0" d="M803.7,341.5c-3.8-3.6-5.6-8.7-5.6-15.4c0-6.7,1.9-11.9,5.7-15.5c3.8-3.6,9-5.4,15.7-5.4s12,1.8,15.7,5.3
		c3.8,3.5,5.6,8.5,5.6,15.1v2.1c0,0.7-0.2,1.2-0.6,1.6s-1,0.6-1.6,0.6H811c0.2,3,1.1,5.2,2.6,6.6c1.5,1.4,3.8,2.1,7.1,2.1
		s5.5-0.7,6.7-2.2s2.7-2.2,4.4-2.2h5.5c0.7,0,1.2,0.2,1.6,0.6c0.4,0.4,0.6,1,0.6,1.6c0,7-6.7,10.5-20,10.5
		C812.7,346.9,807.4,345.1,803.7,341.5z M810.9,322.2h17c-0.2-5.8-3.1-8.6-8.5-8.6S811.2,316.5,810.9,322.2z"/>
</g>
<g>
	<g>
		<path class="st1" d="M207.2,502.9c-8.2-7.8-12.3-20-12.3-36.4s4.1-28.6,12.3-36.5c8.2-7.9,20.6-11.8,37-11.8H259
			c10.1,0,19,2.6,26.7,7.8c7.7,5.2,11.6,12.4,11.6,21.5c0,2.6-0.8,4.5-2.3,5.6c-1.6,1.1-3.1,1.7-4.5,1.7h-7.9
			c-4.1,0-7.3-2.4-9.5-7.3c-3.3-7-8.7-10.5-16.4-10.5h-11.8c-9.7,0-16.3,2.1-19.8,6.3c-3.5,4.2-5.2,11.9-5.2,23.1
			c0,11.3,1.7,19,5.2,23.2c3.5,4.2,10,6.3,19.8,6.3h13.2c7.6,0,13.1-3.5,16.3-10.5c2.3-4.9,5.5-7.4,9.6-7.4h7.9c2.1,0,3.7,0.8,5,2.3
			c1.2,1.6,1.8,3.2,1.8,5.1c0,9.1-3.9,16.2-11.6,21.5c-7.7,5.2-16.6,7.8-26.7,7.8h-16.2C227.7,514.6,215.4,510.7,207.2,502.9z"/>
		<path class="st1" d="M311.6,508v-82.8c0-1.8,0.6-3.3,1.9-4.6c1.2-1.2,2.7-1.9,4.5-1.9h12.5c1.7,0,3.2,0.6,4.4,1.9
			c1.2,1.2,1.8,2.8,1.8,4.6v70.1h57.9c1.7,0,3.2,0.6,4.4,1.9c1.2,1.2,1.8,2.7,1.8,4.5v6.3c0,1.7-0.6,3.2-1.8,4.4
			c-1.2,1.2-2.7,1.8-4.4,1.8h-76.7c-1.7,0-3.2-0.6-4.5-1.8C312.2,511.2,311.6,509.7,311.6,508z"/>
		<path class="st1" d="M497.7,504.2c-9.1,8-22.4,11.9-39.9,11.9c-17.5,0-30.9-4-39.9-11.9c-9.1-8-13.6-20.6-13.6-37.8
			c0-17.3,4.5-29.8,13.6-37.8c9.1-7.9,22.4-11.9,39.9-11.9c17.5,0,30.8,4,39.9,11.9c9.1,7.9,13.6,20.5,13.6,37.8
			C511.3,483.7,506.8,496.3,497.7,504.2z M479.5,442.7c-4.5-5.3-11.7-8-21.7-8c-10,0-17.3,2.7-21.8,8c-4.5,5.3-6.8,13.2-6.8,23.8
			c0,10.5,2.3,18.4,6.8,23.7c4.5,5.3,11.8,7.9,21.8,7.9c10,0,17.2-2.6,21.7-7.9c4.5-5.3,6.7-13.2,6.7-23.7
			C486.2,455.9,484,448,479.5,442.7z"/>
		<path class="st1" d="M519.5,489.7c0-2.6,0.8-4.5,2.3-5.6c1.6-1.1,3.1-1.7,4.5-1.7h7.9c4,0,7,2.2,9.1,6.5c2.1,4.3,6.8,6.5,14,6.5
			l23.3,0.5c7.8,0,11.7-2.5,11.7-7.7c0-3.9-4.8-6.9-14.3-9.1c-4.3-1-9-2-14.1-3c-5.1-1-10.3-2.3-15.3-3.8c-5.1-1.5-9.7-3.3-14-5.3
			c-4.3-2-7.7-4.8-10.3-8.4c-2.6-3.6-4-7.8-4-12.6c0-8.9,3.2-15.8,9.5-20.6c6.3-4.8,17.3-7.2,32.7-7.2l16.9,0.4
			c9.1,0,17.3,2.3,24.6,7c7.3,4.7,10.9,10.5,10.9,17.5c0,2.6-0.8,4.5-2.3,5.7c-1.6,1.2-3,1.7-4.5,1.7h-7.9c-4,0-7-2.2-9.1-6.6
			c-2.1-4.4-6.8-6.6-14-6.6l-20-0.4c-7.8,0-11.7,2.6-11.7,7.6c0,2.8,2.5,5.1,7.4,6.9c4.9,1.8,10.9,3.3,18,4.7c7,1.4,14.1,3,21.2,4.9
			c7.1,1.9,13.1,5,18.1,9.4c4.9,4.4,7.4,9.8,7.4,16.3c0,8.9-3.2,15.8-9.5,20.6c-6.4,4.8-17.3,7.2-32.7,7.2l-20.2-0.4
			c-9.1,0-17.3-2.3-24.6-7S519.5,496.7,519.5,489.7z"/>
		<path class="st1" d="M631.1,507.7v-82.8c0-1.7,0.6-3.2,1.9-4.4c1.2-1.2,2.7-1.8,4.5-1.8h76.7c1.7,0,3.2,0.6,4.4,1.9
			c1.2,1.2,1.8,2.7,1.8,4.5v6.3c0,1.7-0.6,3.2-1.8,4.4s-2.7,1.8-4.4,1.8h-57.9v19.4H706c1.7,0,3.2,0.6,4.4,1.8
			c1.2,1.2,1.8,2.7,1.8,4.4v6.3c0,1.7-0.6,3.2-1.8,4.4c-1.2,1.2-2.7,1.8-4.4,1.8h-49.9v19.6h57.8c1.7,0,3.1,0.6,4.3,1.8
			s1.8,2.7,1.8,4.4v6.4c0,1.7-0.6,3.2-1.9,4.4c-1.2,1.2-2.7,1.8-4.5,1.8h-76.4c-1.7,0-3.2-0.6-4.5-1.8
			C631.7,511.1,631.1,509.5,631.1,507.7z"/>
		<path class="st1" d="M732.6,508v-82.8c0-1.8,0.6-3.3,1.9-4.6c1.2-1.2,2.7-1.9,4.5-1.9h37.2c19.2,0,33.2,3.8,42,11.5
			c8.8,7.7,13.1,19.8,13.1,36.2s-4.4,28.5-13.1,36.2c-8.8,7.7-22.8,11.5-42,11.5h-37.2c-1.7,0-3.2-0.6-4.5-1.8
			C733.2,511.2,732.6,509.7,732.6,508z M757.6,495.3h17.7c11.9,0,20-2.2,24.3-6.5c4.3-4.3,6.5-11.8,6.5-22.3c0-10.5-2.2-18-6.5-22.4
			c-4.3-4.4-12.4-6.6-24.3-6.6h-17.7V495.3z"/>
	</g>
	<g>
		<g>
			<path class="st0" d="M202.2,497.9c-8.2-7.8-12.3-20-12.3-36.4s4.1-28.6,12.3-36.5c8.2-7.9,20.6-11.8,37-11.8H254
				c10.1,0,19,2.6,26.7,7.8c7.7,5.2,11.6,12.4,11.6,21.5c0,2.6-0.8,4.5-2.3,5.6c-1.6,1.1-3.1,1.7-4.5,1.7h-7.9
				c-4.1,0-7.3-2.4-9.5-7.3c-3.3-7-8.7-10.5-16.4-10.5h-11.8c-9.7,0-16.3,2.1-19.8,6.3c-3.5,4.2-5.2,11.9-5.2,23.1
				c0,11.3,1.7,19,5.2,23.2c3.5,4.2,10,6.3,19.8,6.3h13.2c7.6,0,13.1-3.5,16.3-10.5c2.3-4.9,5.5-7.4,9.6-7.4h7.9
				c2.1,0,3.7,0.8,5,2.3c1.2,1.6,1.8,3.2,1.8,5.1c0,9.1-3.9,16.2-11.6,21.5c-7.7,5.2-16.6,7.8-26.7,7.8h-16.2
				C222.7,509.6,210.4,505.7,202.2,497.9z"/>
			<path class="st0" d="M306.6,503v-82.8c0-1.8,0.6-3.3,1.9-4.6c1.2-1.2,2.7-1.9,4.5-1.9h12.5c1.7,0,3.2,0.6,4.4,1.9
				c1.2,1.2,1.8,2.8,1.8,4.6v70.1h57.9c1.7,0,3.2,0.6,4.4,1.9c1.2,1.2,1.8,2.7,1.8,4.5v6.3c0,1.7-0.6,3.2-1.8,4.4
				c-1.2,1.2-2.7,1.8-4.4,1.8h-76.7c-1.7,0-3.2-0.6-4.5-1.8C307.2,506.2,306.6,504.7,306.6,503z"/>
			<path class="st0" d="M492.7,499.2c-9.1,8-22.4,11.9-39.9,11.9c-17.5,0-30.9-4-39.9-11.9c-9.1-8-13.6-20.6-13.6-37.8
				c0-17.3,4.5-29.8,13.6-37.8c9.1-7.9,22.4-11.9,39.9-11.9c17.5,0,30.8,4,39.9,11.9c9.1,7.9,13.6,20.5,13.6,37.8
				C506.3,478.7,501.8,491.3,492.7,499.2z M474.5,437.7c-4.5-5.3-11.7-8-21.7-8c-10,0-17.3,2.7-21.8,8c-4.5,5.3-6.8,13.2-6.8,23.8
				c0,10.5,2.3,18.4,6.8,23.7c4.5,5.3,11.8,7.9,21.8,7.9c10,0,17.2-2.6,21.7-7.9c4.5-5.3,6.7-13.2,6.7-23.7
				C481.2,450.9,479,443,474.5,437.7z"/>
			<path class="st0" d="M514.5,484.7c0-2.6,0.8-4.5,2.3-5.6c1.6-1.1,3.1-1.7,4.5-1.7h7.9c4,0,7,2.2,9.1,6.5c2.1,4.3,6.8,6.5,14,6.5
				l23.3,0.5c7.8,0,11.7-2.5,11.7-7.7c0-3.9-4.8-6.9-14.3-9.1c-4.3-1-9-2-14.1-3c-5.1-1-10.3-2.3-15.3-3.8c-5.1-1.5-9.7-3.3-14-5.3
				c-4.3-2-7.7-4.8-10.3-8.4c-2.6-3.6-4-7.8-4-12.6c0-8.9,3.2-15.8,9.5-20.6c6.3-4.8,17.3-7.2,32.7-7.2l16.9,0.4
				c9.1,0,17.3,2.3,24.6,7c7.3,4.7,10.9,10.5,10.9,17.5c0,2.6-0.8,4.5-2.3,5.7c-1.6,1.2-3,1.7-4.5,1.7h-7.9c-4,0-7-2.2-9.1-6.6
				c-2.1-4.4-6.8-6.6-14-6.6l-20-0.4c-7.8,0-11.7,2.6-11.7,7.6c0,2.8,2.5,5.1,7.4,6.9c4.9,1.8,10.9,3.3,18,4.7
				c7,1.4,14.1,3,21.2,4.9c7.1,1.9,13.1,5,18.1,9.4c4.9,4.4,7.4,9.8,7.4,16.3c0,8.9-3.2,15.8-9.5,20.6c-6.4,4.8-17.3,7.2-32.7,7.2
				l-20.2-0.4c-9.1,0-17.3-2.3-24.6-7S514.5,491.7,514.5,484.7z"/>
			<path class="st0" d="M626.1,502.7v-82.8c0-1.7,0.6-3.2,1.9-4.4c1.2-1.2,2.7-1.8,4.5-1.8h76.7c1.7,0,3.2,0.6,4.4,1.9
				c1.2,1.2,1.8,2.7,1.8,4.5v6.3c0,1.7-0.6,3.2-1.8,4.4s-2.7,1.8-4.4,1.8h-57.9v19.4H701c1.7,0,3.2,0.6,4.4,1.8
				c1.2,1.2,1.8,2.7,1.8,4.4v6.3c0,1.7-0.6,3.2-1.8,4.4c-1.2,1.2-2.7,1.8-4.4,1.8h-49.9v19.6h57.8c1.7,0,3.1,0.6,4.3,1.8
				s1.8,2.7,1.8,4.4v6.4c0,1.7-0.6,3.2-1.9,4.4c-1.2,1.2-2.7,1.8-4.5,1.8h-76.4c-1.7,0-3.2-0.6-4.5-1.8
				C626.7,506.1,626.1,504.5,626.1,502.7z"/>
			<path class="st0" d="M727.6,503v-82.8c0-1.8,0.6-3.3,1.9-4.6c1.2-1.2,2.7-1.9,4.5-1.9h37.2c19.2,0,33.2,3.8,42,11.5
				c8.8,7.7,13.1,19.8,13.1,36.2s-4.4,28.5-13.1,36.2c-8.8,7.7-22.8,11.5-42,11.5h-37.2c-1.7,0-3.2-0.6-4.5-1.8
				C728.2,506.2,727.6,504.7,727.6,503z M752.6,490.3h17.7c11.9,0,20-2.2,24.3-6.5c4.3-4.3,6.5-11.8,6.5-22.3
				c0-10.5-2.2-18-6.5-22.4c-4.3-4.4-12.4-6.6-24.3-6.6h-17.7V490.3z"/>
		</g>
	</g>
</g>
<rect x="19" y="114.8" class="st2" width="962.9" height="475.6"/>
<path class="st3" d="M814.8,115.8L521,17.9c-4-1.3-8.4-1.3-12.5,0l-293.8,97.9"/>
</svg>
