<svg xmlns="http://www.w3.org/2000/svg" viewBox="0 0 451.12 437.94"><defs><style>.cls-1{fill:#f2c443;}.cls-2{fill:#664534;}</style></defs><title>Fichier 7</title><g id="Calque_2" data-name="Calque 2"><g id="PUZZLE_PIECE_2"><path class="cls-1" d="M451.11,173.84A60.77,60.77,0,0,1,354,223.4a2.87,2.87,0,0,0-4.57,2.31V335.49a14,14,0,0,1-13.95,13.95H233.28a2.86,2.86,0,0,0-2.64,4,61.68,61.68,0,0,1,2.82,39.6A59.15,59.15,0,0,1,191,435.82C150.44,446.38,114,416.05,114,377.19a60.5,60.5,0,0,1,4.83-23.78,2.86,2.86,0,0,0-2.65-4H13.93A13.94,13.94,0,0,1,0,335.85c0-.12,0-.24,0-.36V225.71a2.87,2.87,0,0,1,4.57-2.31,60.75,60.75,0,1,0,0-97.4A2.87,2.87,0,0,1,0,123.73V14c0-.1,0-.2,0-.3A13.94,13.94,0,0,1,13.93,0H112a2.87,2.87,0,0,1,2.82,3.39,61.16,61.16,0,0,0-.76,14.88,61,61,0,0,0,58.45,56.36,60.76,60.76,0,0,0,62-71.26A2.86,2.86,0,0,1,237.36,0h98.12a14,14,0,0,1,13.95,14V123.73A2.87,2.87,0,0,0,354,126a60.77,60.77,0,0,1,97.07,47.84Z"/><path class="cls-2" d="M295.43,112.67l-12,15.77L262.21,107.2l15.78-12c-4.37-9.61-3.56-20.11,3-26.67,9.06-9.05,25.59-7.18,36.94,4.17s13.22,27.88,4.17,36.93C315.54,116.22,305,117,295.43,112.67Z"/><path class="cls-2" d="M248.92,261.76l-15.77-12,21.24-21.24,12,15.77c9.6-4.37,20.1-3.55,26.66,3,9.05,9,7.19,25.59-4.16,36.94s-27.89,13.21-36.94,4.16C245.37,281.87,244.55,271.37,248.92,261.76Z"/><path class="cls-2" d="M190.21,176.48l2.68,19.61h-30l2.68-19.62c-9.88-3.7-16.73-11.71-16.73-21,0-12.8,13-23.18,29.07-23.18s29.06,10.38,29.06,23.18C206.94,164.76,200.09,172.77,190.21,176.48Z"/><path class="cls-2" d="M65.71,57.81l15.77,12L60.24,91l-12-15.78c-9.61,4.37-20.11,3.56-26.67-3-9-9-7.18-25.58,4.17-36.93S53.65,22.09,62.7,31.14C69.26,37.7,70.08,48.21,65.71,57.81Z"/><path class="cls-2" d="M106.4,267.51l12-15.77L139.61,273l-15.77,12c4.37,9.61,3.55,20.11-3,26.67-9,9.05-25.59,7.18-36.94-4.17s-13.21-27.88-4.16-36.93C86.29,264,96.79,263.14,106.4,267.51Z"/></g></g></svg>