<svg xmlns="http://www.w3.org/2000/svg" viewBox="0 0 1195.86 817.53"><defs><style>.cls-1{fill:#e6e6e6;}.cls-1,.cls-3,.cls-4{stroke:#f3f3f3;}.cls-1,.cls-3{stroke-linejoin:round;}.cls-1,.cls-2,.cls-3,.cls-4{stroke-width:15px;}.cls-2,.cls-3,.cls-4{fill:none;}.cls-2{stroke:#fff;}.cls-2,.cls-4{stroke-miterlimit:10;}.cls-5{fill:#fff;}.cls-6{fill:#f3f3f3;}.cls-7{fill:#f5f4f4;}.cls-8{fill:#e84436;}</style></defs><title>Fichier 11</title><g id="Calque_2" data-name="Calque 2"><g id="Calque_19" data-name="Calque 19"><rect class="cls-1" x="15.69" y="97.18" width="520.44" height="207.5" rx="12" transform="translate(-19.4 29.78) rotate(-5.97)"/><line class="cls-2" x1="480.99" y1="128.76" x2="278" y2="149.98"/><line class="cls-2" x1="444.89" y1="225.16" x2="333.25" y2="236.84"/><rect class="cls-3" x="631.43" y="32.81" width="520.44" height="207.5" rx="12" transform="translate(-9.37 93.45) rotate(-5.97)"/><line class="cls-4" x1="1096.72" y1="64.39" x2="893.73" y2="85.61"/><line class="cls-4" x1="1060.62" y1="160.79" x2="948.98" y2="172.46"/><rect class="cls-3" x="43.99" y="367.84" width="520.44" height="207.5" rx="12" transform="translate(-47.39 34.19) rotate(-5.97)"/><line class="cls-4" x1="509.28" y1="399.41" x2="306.29" y2="420.63"/><line class="cls-4" x1="473.19" y1="495.81" x2="361.55" y2="507.49"/><rect class="cls-1" x="659.72" y="303.46" width="520.44" height="207.5" rx="12" transform="translate(-37.35 97.86) rotate(-5.97)"/><line class="cls-2" x1="1125.01" y1="335.04" x2="922.03" y2="356.26"/><line class="cls-2" x1="1088.92" y1="431.44" x2="977.28" y2="443.11"/><rect class="cls-5" x="721.07" y="386.87" width="140.08" height="57.28" transform="translate(1143.97 1236.47) rotate(-140.97)"/><path class="cls-6" d="M810.13,142a56.49,56.49,0,1,0-50.31,62A56.5,56.5,0,0,0,810.13,142Zm-20.62,2.15a35.75,35.75,0,1,1-39.28-31.83A35.77,35.77,0,0,1,789.51,144.1Z"/><path class="cls-5" d="M169.24,232.46l9.59,39.19L118,278l1.28-40.35c-20.81-5.41-36.38-20.18-38.35-39-2.71-25.94,21.47-49.72,54-53.13s61.1,14.87,63.82,40.81C200.66,205.18,188.48,222.86,169.24,232.46Z"/><circle class="cls-6" cx="173.48" cy="491.52" r="54.43"/><path class="cls-7" d="M990.24,564.13a50.09,50.09,0,0,0-60.84-14.55,50.09,50.09,0,0,0-43.11-15V478.53c0-28.14-22.66-51-50.5-51s-50.5,22.9-50.5,51V601.28A49.88,49.88,0,0,0,738,608a51.38,51.38,0,0,0-11.08,71l83.56,117.31a50.43,50.43,0,0,0,41,21.22H987.28a50.64,50.64,0,0,0,49.17-39.46l20.9-90.65a52,52,0,0,0,1.32-11.58v-64C1058.67,576.16,1023.15,551.45,990.24,564.13Zm31.86,111.71a15.25,15.25,0,0,1-.38,3.36l-20.9,90.66A14,14,0,0,1,987.28,781H851.46a13.83,13.83,0,0,1-11.2-5.86L756.69,657.78c-11-15.4,11.42-32.62,22.39-17.22l20.66,29c6.86,9.62,22.12,4.79,22.12-7.07v-184c0-19.13,27.86-19.16,27.86,0V611.85A12.2,12.2,0,0,0,861.9,624h5.23a12.2,12.2,0,0,0,12.19-12.19V585.18c0-19.13,27.86-19.16,27.86,0v26.67A12.2,12.2,0,0,0,919.37,624h5.22a12.19,12.19,0,0,0,12.19-12.19v-16c0-19.14,27.86-19.17,27.86,0v16A12.2,12.2,0,0,0,976.83,624h5.22a12.19,12.19,0,0,0,12.19-12.19c0-19.14,27.86-19.17,27.86,0Z"/><path class="cls-8" d="M1022.1,611.85v64a15.25,15.25,0,0,1-.38,3.36l-20.9,90.66A14,14,0,0,1,987.28,781H851.46a13.83,13.83,0,0,1-11.2-5.86L756.69,657.78c-11-15.4,11.42-32.62,22.39-17.22l20.66,29c6.86,9.62,22.12,4.79,22.12-7.07v-184c0-19.13,27.86-19.16,27.86,0V611.85A12.2,12.2,0,0,0,861.9,624h5.23a12.2,12.2,0,0,0,12.19-12.19V585.18c0-19.13,27.86-19.16,27.86,0v26.67A12.2,12.2,0,0,0,919.37,624h5.22a12.19,12.19,0,0,0,12.19-12.19v-16c0-19.14,27.86-19.17,27.86,0v16A12.2,12.2,0,0,0,976.83,624h5.22a12.19,12.19,0,0,0,12.19-12.19C994.24,592.71,1022.1,592.68,1022.1,611.85Z"/></g></g></svg>