<svg xmlns="http://www.w3.org/2000/svg" viewBox="0 0 1479.21 518.14"><defs><style>.cls-1,.cls-2,.cls-3,.cls-4{fill:none;stroke:#f3f3f3;}.cls-1,.cls-2,.cls-3{stroke-miterlimit:10;}.cls-1,.cls-2,.cls-4{stroke-width:15px;}.cls-2,.cls-3{stroke-linecap:round;}.cls-3{stroke-width:12px;}.cls-4{stroke-linejoin:round;}.cls-5{fill:#f3f3f3;}</style></defs><title>Pizza_puzzle_Fichier 12</title><g id="Calque_2" data-name="Calque 2"><g id="Calque_17" data-name="Calque 17"><circle class="cls-1" cx="213.74" cy="205.52" r="198.01"/><path class="cls-2" d="M466.64,473c-6.23-76-109.87-78.83-236.59-68.44S1.55,434.68,7.77,510.64"/><path class="cls-3" d="M285.65,296.42c-3.48,21.18-25.5,41.08-60.86,44s-60.33-13.15-67.2-33.48"/><line class="cls-1" x1="627.1" y1="92.23" x2="903.15" y2="120.59"/><line class="cls-1" x1="1001.04" y1="130.65" x2="1277.08" y2="159.01"/><line class="cls-1" x1="616.86" y1="191.82" x2="1266.85" y2="258.61"/><line class="cls-1" x1="607" y1="287.8" x2="1256.99" y2="354.58"/><rect class="cls-4" x="525.15" y="55.71" width="833.42" height="339.02" rx="43.39" transform="translate(27.95 -95.09) rotate(5.87)"/><path class="cls-5" d="M1479.21,474.42a13,13,0,0,1-13,13h-123a13,13,0,1,1,0-26h48.49V235.77h-48.49a13,13,0,1,1,0-26h123a13,13,0,0,1,0,26h-48.48V461.41h48.48A13,13,0,0,1,1479.21,474.42Z"/></g></g></svg>