<svg xmlns="http://www.w3.org/2000/svg" viewBox="0 0 1349.23 784.05"><defs><style>.cls-1,.cls-2,.cls-3,.cls-4,.cls-6,.cls-7,.cls-8{fill:none;}.cls-1,.cls-2,.cls-3,.cls-4,.cls-5{stroke:#f3f3f3;}.cls-1,.cls-2,.cls-3,.cls-5,.cls-6,.cls-7{stroke-linejoin:round;}.cls-1,.cls-6{stroke-width:20px;}.cls-2,.cls-7{stroke-width:10px;}.cls-3,.cls-4,.cls-5,.cls-8{stroke-width:15px;}.cls-4,.cls-8{stroke-miterlimit:10;}.cls-5{fill:#e6e6e6;}.cls-6,.cls-7,.cls-8{stroke:#fff;}.cls-9{fill:#f5f4f4;}.cls-10{fill:#e84436;}</style></defs><title>Fichier 10</title><g id="Calque_2" data-name="Calque 2"><g id="Calque_18" data-name="Calque 18"><circle class="cls-1" cx="221.37" cy="178.26" r="133.07"/><circle class="cls-2" cx="200.92" cy="102.38" r="23.48"/><circle class="cls-2" cx="301.56" cy="181.46" r="23.48"/><circle class="cls-2" cx="211.72" cy="182.24" r="23.48"/><circle class="cls-2" cx="132.18" cy="162.09" r="23.48"/><circle class="cls-2" cx="167.47" cy="245.41" r="23.48"/><circle class="cls-2" cx="260.3" cy="253.44" r="23.48"/><circle class="cls-2" cx="273.21" cy="112.81" r="23.48"/><circle class="cls-1" cx="1140.35" cy="234.45" r="133.07"/><circle class="cls-2" cx="1119.89" cy="158.57" r="23.48"/><circle class="cls-2" cx="1220.54" cy="237.66" r="23.48"/><circle class="cls-2" cx="1130.69" cy="238.44" r="23.48"/><circle class="cls-2" cx="1051.15" cy="218.28" r="23.48"/><circle class="cls-2" cx="1086.44" cy="301.61" r="23.48"/><circle class="cls-2" cx="1179.28" cy="309.64" r="23.48"/><circle class="cls-2" cx="1192.19" cy="169" r="23.48"/><rect class="cls-3" x="19.5" y="16.9" width="391.26" height="473.76" rx="35.46" transform="translate(15.89 -12.66) rotate(3.5)"/><line class="cls-4" x1="85.09" y1="355" x2="314.79" y2="369.05"/><line class="cls-4" x1="140.46" y1="417.79" x2="256.87" y2="424.91"/><rect class="cls-5" x="481.25" y="45.14" width="391.26" height="473.76" rx="35.46" transform="translate(18.48 -40.79) rotate(3.5)"/><rect class="cls-3" x="938.47" y="73.1" width="391.26" height="473.76" rx="35.46" transform="translate(21.03 -68.64) rotate(3.5)"/><line class="cls-4" x1="1004.07" y1="411.2" x2="1233.77" y2="425.24"/><line class="cls-4" x1="1059.43" y1="473.99" x2="1175.85" y2="481.11"/><circle class="cls-6" cx="683.12" cy="206.5" r="133.07"/><circle class="cls-7" cx="662.67" cy="130.61" r="23.48"/><circle class="cls-7" cx="763.31" cy="209.7" r="23.48"/><circle class="cls-7" cx="673.47" cy="210.48" r="23.48"/><circle class="cls-7" cx="593.93" cy="190.32" r="23.48"/><circle class="cls-7" cx="629.22" cy="273.65" r="23.48"/><circle class="cls-7" cx="722.05" cy="281.68" r="23.48"/><circle class="cls-7" cx="734.96" cy="141.05" r="23.48"/><line class="cls-8" x1="546.84" y1="383.24" x2="776.54" y2="397.28"/><line class="cls-8" x1="602.21" y1="446.03" x2="718.62" y2="453.15"/><path class="cls-9" d="M763.53,530.65a50.1,50.1,0,0,0-60.85-14.55,50,50,0,0,0-43.11-15V445.06c0-28.15-22.65-51-50.5-51s-50.49,22.89-50.49,51V567.81a49.87,49.87,0,0,0-47.3,6.75,51.39,51.39,0,0,0-11.08,71l83.57,117.32a50.45,50.45,0,0,0,41,21.21H760.56a50.63,50.63,0,0,0,49.18-39.46l20.89-90.65A51.36,51.36,0,0,0,832,642.36v-64C832,542.68,796.44,518,763.53,530.65Zm31.85,111.71a15.34,15.34,0,0,1-.38,3.37l-20.89,90.65a14,14,0,0,1-13.55,11.11H624.74a13.83,13.83,0,0,1-11.19-5.87L530,624.31c-11-15.41,11.43-32.62,22.4-17.23l20.66,29c6.85,9.62,22.11,4.79,22.11-7.07v-184c0-19.14,27.86-19.17,27.86,0V578.37a12.19,12.19,0,0,0,12.19,12.19h5.22a12.19,12.19,0,0,0,12.19-12.19V551.71c0-19.14,27.86-19.17,27.86,0v26.66a12.19,12.19,0,0,0,12.19,12.19h5.23a12.18,12.18,0,0,0,12.18-12.19v-16c0-19.13,27.86-19.16,27.86,0v16a12.19,12.19,0,0,0,12.19,12.19h5.23a12.19,12.19,0,0,0,12.19-12.19c0-19.13,27.85-19.16,27.85,0Z"/><path class="cls-10" d="M795.38,578.37v64a15.34,15.34,0,0,1-.38,3.37l-20.89,90.65a14,14,0,0,1-13.55,11.11H624.74a13.83,13.83,0,0,1-11.19-5.87L530,624.31c-11-15.41,11.43-32.62,22.4-17.23l20.66,29c6.85,9.62,22.11,4.79,22.11-7.07v-184c0-19.14,27.86-19.17,27.86,0V578.37a12.19,12.19,0,0,0,12.19,12.19h5.22a12.19,12.19,0,0,0,12.19-12.19V551.71c0-19.14,27.86-19.17,27.86,0v26.66a12.19,12.19,0,0,0,12.19,12.19h5.23a12.18,12.18,0,0,0,12.18-12.19v-16c0-19.13,27.86-19.16,27.86,0v16a12.19,12.19,0,0,0,12.19,12.19h5.23a12.19,12.19,0,0,0,12.19-12.19C767.53,559.24,795.38,559.21,795.38,578.37Z"/></g></g></svg>